<?xml version="1.0" encoding="UTF-8" standalone="no"?>
<!-- Created with Inkscape (http://www.inkscape.org/) -->
<svg
   xmlns:dc="http://purl.org/dc/elements/1.1/"
   xmlns:cc="http://creativecommons.org/ns#"
   xmlns:rdf="http://www.w3.org/1999/02/22-rdf-syntax-ns#"
   xmlns:svg="http://www.w3.org/2000/svg"
   xmlns="http://www.w3.org/2000/svg"
   xmlns:sodipodi="http://sodipodi.sourceforge.net/DTD/sodipodi-0.dtd"
   xmlns:inkscape="http://www.inkscape.org/namespaces/inkscape"
   width="592.38062"
   height="462.91919"
   id="svg4735"
   sodipodi:version="0.32"
   inkscape:version="0.46"
   sodipodi:docname="camperVan1.svg"
   inkscape:output_extension="org.inkscape.output.svg.inkscape"
   version="1.0">
  <defs
     id="defs4737">
    <inkscape:perspective
       sodipodi:type="inkscape:persp3d"
       inkscape:vp_x="0 : 526.18109 : 1"
       inkscape:vp_y="0 : 1000 : 0"
       inkscape:vp_z="744.09448 : 526.18109 : 1"
       inkscape:persp3d-origin="372.04724 : 350.78739 : 1"
       id="perspective4743" />
  </defs>
  <sodipodi:namedview
     id="base"
     pagecolor="#ffffff"
     bordercolor="#666666"
     borderopacity="1.0"
     gridtolerance="10000"
     guidetolerance="10"
     objecttolerance="10"
     inkscape:pageopacity="0.0"
     inkscape:pageshadow="2"
     inkscape:zoom="0.24748737"
     inkscape:cx="847.69281"
     inkscape:cy="632.29987"
     inkscape:document-units="px"
     inkscape:current-layer="layer1"
     showgrid="false"
     inkscape:window-width="1022"
     inkscape:window-height="692"
     inkscape:window-x="0"
     inkscape:window-y="26"
     showborder="false"
     inkscape:showpageshadow="false" />
  <metadata
     id="metadata4740">
    <rdf:RDF>
      <cc:Work
         rdf:about="">
        <dc:format>image/svg+xml</dc:format>
        <dc:type
           rdf:resource="http://purl.org/dc/dcmitype/StillImage" />
        <dc:title>Camper Van 1</dc:title>
        <cc:license
           rdf:resource="http://creativecommons.org/licenses/publicdomain/" />
        <dc:date>3rd June 2008</dc:date>
        <dc:creator>
          <cc:Agent>
            <dc:title>Tom Brough</dc:title>
          </cc:Agent>
        </dc:creator>
        <dc:publisher>
          <cc:Agent>
            <dc:title>Tom Brough</dc:title>
          </cc:Agent>
        </dc:publisher>
        <dc:subject>
          <rdf:Bag>
            <rdf:li>car</rdf:li>
            <rdf:li>van</rdf:li>
            <rdf:li>cartoons</rdf:li>
            <rdf:li>vehicle</rdf:li>
            <rdf:li>camper</rdf:li>
            <rdf:li>fun</rdf:li>
            <rdf:li>happy</rdf:li>
          </rdf:Bag>
        </dc:subject>
        <dc:description>red camper van</dc:description>
        <dc:language>en-GB</dc:language>
      </cc:Work>
      <cc:License
         rdf:about="http://creativecommons.org/licenses/publicdomain/">
        <cc:permits
           rdf:resource="http://creativecommons.org/ns#Reproduction" />
        <cc:permits
           rdf:resource="http://creativecommons.org/ns#Distribution" />
        <cc:permits
           rdf:resource="http://creativecommons.org/ns#DerivativeWorks" />
      </cc:License>
    </rdf:RDF>
  </metadata>
  <g
     inkscape:label="Layer 1"
     inkscape:groupmode="layer"
     id="layer1"
     transform="translate(-39.404349,-38.569545)">
    <g
       id="g5582"
       inkscape:export-filename="/home/tom/WorkShops/Inkscape/campervan.png"
       inkscape:export-xdpi="600"
       inkscape:export-ydpi="600">
      <g
         transform="matrix(0.8179675,0,0,0.8179675,29.44112,80.704257)"
         id="g4807">
        <path
           style="fill:#808080;fill-opacity:1;fill-rule:nonzero;stroke:#000000;stroke-width:4.8901701;stroke-miterlimit:4;stroke-dasharray:none;stroke-opacity:1"
           d="M 559.70927,265.08003 C 559.37358,265.13955 559.03717,265.16406 558.70174,265.22735 C 555.67517,265.79832 552.67799,266.49842 549.68489,267.37922 C 546.69179,268.26001 543.70735,269.32727 540.76905,270.52443 C 537.83075,271.7216 534.93736,273.07869 532.0752,274.59875 C 529.21303,276.1188 526.4684,277.756 523.83112,279.51995 C 521.19383,281.28391 518.63834,283.15885 516.23248,285.14537 C 513.82661,287.13189 511.56818,289.22299 509.40026,291.41074 C 507.23234,293.59849 505.17945,295.87375 503.25602,298.24138 C 501.33259,300.60902 499.53268,303.07899 497.86027,305.60518 C 496.18785,308.13137 494.64014,310.71584 493.22529,313.37926 C 491.81044,316.04267 490.53211,318.76825 489.38134,321.54756 C 488.23057,324.32687 487.20669,327.15967 486.32654,330.03353 C 485.44639,332.90738 484.70831,335.82772 484.10531,338.77478 C 483.50231,341.72185 483.03508,344.69584 482.71578,347.69478 C 482.39647,350.69372 482.21726,353.74796 482.18818,356.77744 C 482.15911,359.80692 482.28134,362.81492 482.54902,365.8536 C 482.8167,368.89229 483.24337,371.92694 483.81434,374.95351 C 484.38532,377.98008 485.10148,381.0075 485.98228,384.0006 C 486.86307,386.9937 487.88402,389.96397 489.08119,392.90226 C 490.27835,395.84056 491.6515,398.7642 493.17156,401.62636 C 494.69162,404.48853 496.32881,407.23316 498.09277,409.87044 C 499.85673,412.50773 501.74584,415.01691 503.73237,417.42278 C 505.71889,419.82864 507.82605,422.11732 510.0138,424.28524 C 512.20155,426.45316 514.47681,428.50605 516.84445,430.42948 C 519.21208,432.3529 521.6518,434.16888 524.17799,435.8413 C 524.41361,435.99728 524.67163,436.11387 524.90853,436.26764 C 534.34588,434.59899 543.70177,431.48296 552.61916,426.74705 C 598.4138,402.42609 615.85982,345.54431 591.53886,299.74968 C 583.78419,285.14819 572.67285,273.48002 559.70927,265.08003 z"
           id="path4795" />
        <path
           style="fill:#000000;fill-opacity:1;fill-rule:nonzero;stroke:#000000;stroke-width:4.8901701;stroke-miterlimit:4;stroke-dasharray:none;stroke-opacity:1"
           d="M 464.51124,260.84604 C 418.71659,285.167 401.28665,342.07902 425.6076,387.87366 C 445.19265,424.75092 485.88097,443.16823 524.90853,436.26764 C 524.67163,436.11387 524.41361,435.99728 524.17799,435.8413 C 521.6518,434.16888 519.21208,432.3529 516.84445,430.42948 C 514.47681,428.50605 512.20155,426.45316 510.0138,424.28524 C 507.82605,422.11732 505.71889,419.82864 503.73237,417.42278 C 501.74584,415.01691 499.85673,412.50773 498.09277,409.87044 C 496.32881,407.23316 494.69162,404.48853 493.17156,401.62636 C 491.6515,398.7642 490.27835,395.84056 489.08119,392.90226 C 487.88402,389.96397 486.86307,386.9937 485.98228,384.0006 C 485.10148,381.0075 484.38532,377.98008 483.81434,374.95351 C 483.24337,371.92694 482.8167,368.89229 482.54902,365.8536 C 482.28134,362.81492 482.15911,359.80692 482.18818,356.77744 C 482.21726,353.74796 482.39647,350.69372 482.71578,347.69478 C 483.03508,344.69584 483.50231,341.72185 484.10531,338.77478 C 484.70831,335.82772 485.44639,332.90738 486.32654,330.03353 C 487.20669,327.15967 488.23057,324.32687 489.38134,321.54756 C 490.53211,318.76825 491.81044,316.04267 493.22529,313.37926 C 494.64014,310.71584 496.18785,308.13137 497.86027,305.60518 C 499.53268,303.07899 501.33259,300.60902 503.25602,298.24138 C 505.17945,295.87375 507.23234,293.59849 509.40026,291.41074 C 511.56818,289.22299 513.82661,287.13189 516.23248,285.14537 C 518.63834,283.15885 521.19383,281.28391 523.83112,279.51995 C 526.4684,277.756 529.21303,276.1188 532.0752,274.59875 C 534.93736,273.07869 537.83075,271.7216 540.76905,270.52443 C 543.70735,269.32727 546.69179,268.26001 549.68489,267.37922 C 552.67799,266.49842 555.67517,265.79832 558.70174,265.22735 C 559.03717,265.16406 559.37358,265.13955 559.70927,265.08003 C 532.01518,247.13515 495.70439,244.27976 464.51124,260.84604 z"
           id="path4797" />
        <path
           sodipodi:type="arc"
           style="fill:#b3b3b3;fill-opacity:1;fill-rule:nonzero;stroke:#000000;stroke-width:4.46219397;stroke-miterlimit:4;stroke-dasharray:none;stroke-opacity:1"
           id="path4799"
           sodipodi:cx="-334.28571"
           sodipodi:cy="626.64789"
           sodipodi:rx="17.142857"
           sodipodi:ry="17.142857"
           d="M -317.14285,626.64789 A 17.142857,17.142857 0 1 1 -351.42856,626.64789 A 17.142857,17.142857 0 1 1 -317.14285,626.64789 z"
           transform="matrix(0.9678819,-0.5140298,0.5140298,0.9678819,539.4577,-432.47249)" />
      </g>
      <g
         transform="matrix(0.8179675,0,0,0.8179675,-297.74589,106.41181)"
         id="g4828">
        <path
           style="fill:#808080;fill-opacity:1;fill-rule:nonzero;stroke:#000000;stroke-width:4.8901701;stroke-miterlimit:4;stroke-dasharray:none;stroke-opacity:1"
           d="M 559.70927,265.08003 C 559.37358,265.13955 559.03717,265.16406 558.70174,265.22735 C 555.67517,265.79832 552.67799,266.49842 549.68489,267.37922 C 546.69179,268.26001 543.70735,269.32727 540.76905,270.52443 C 537.83075,271.7216 534.93736,273.07869 532.0752,274.59875 C 529.21303,276.1188 526.4684,277.756 523.83112,279.51995 C 521.19383,281.28391 518.63834,283.15885 516.23248,285.14537 C 513.82661,287.13189 511.56818,289.22299 509.40026,291.41074 C 507.23234,293.59849 505.17945,295.87375 503.25602,298.24138 C 501.33259,300.60902 499.53268,303.07899 497.86027,305.60518 C 496.18785,308.13137 494.64014,310.71584 493.22529,313.37926 C 491.81044,316.04267 490.53211,318.76825 489.38134,321.54756 C 488.23057,324.32687 487.20669,327.15967 486.32654,330.03353 C 485.44639,332.90738 484.70831,335.82772 484.10531,338.77478 C 483.50231,341.72185 483.03508,344.69584 482.71578,347.69478 C 482.39647,350.69372 482.21726,353.74796 482.18818,356.77744 C 482.15911,359.80692 482.28134,362.81492 482.54902,365.8536 C 482.8167,368.89229 483.24337,371.92694 483.81434,374.95351 C 484.38532,377.98008 485.10148,381.0075 485.98228,384.0006 C 486.86307,386.9937 487.88402,389.96397 489.08119,392.90226 C 490.27835,395.84056 491.6515,398.7642 493.17156,401.62636 C 494.69162,404.48853 496.32881,407.23316 498.09277,409.87044 C 499.85673,412.50773 501.74584,415.01691 503.73237,417.42278 C 505.71889,419.82864 507.82605,422.11732 510.0138,424.28524 C 512.20155,426.45316 514.47681,428.50605 516.84445,430.42948 C 519.21208,432.3529 521.6518,434.16888 524.17799,435.8413 C 524.41361,435.99728 524.67163,436.11387 524.90853,436.26764 C 534.34588,434.59899 543.70177,431.48296 552.61916,426.74705 C 598.4138,402.42609 615.85982,345.54431 591.53886,299.74968 C 583.78419,285.14819 572.67285,273.48002 559.70927,265.08003 z"
           id="path4830" />
        <path
           style="fill:#000000;fill-opacity:1;fill-rule:nonzero;stroke:#000000;stroke-width:4.8901701;stroke-miterlimit:4;stroke-dasharray:none;stroke-opacity:1"
           d="M 464.51124,260.84604 C 418.71659,285.167 401.28665,342.07902 425.6076,387.87366 C 445.19265,424.75092 485.88097,443.16823 524.90853,436.26764 C 524.67163,436.11387 524.41361,435.99728 524.17799,435.8413 C 521.6518,434.16888 519.21208,432.3529 516.84445,430.42948 C 514.47681,428.50605 512.20155,426.45316 510.0138,424.28524 C 507.82605,422.11732 505.71889,419.82864 503.73237,417.42278 C 501.74584,415.01691 499.85673,412.50773 498.09277,409.87044 C 496.32881,407.23316 494.69162,404.48853 493.17156,401.62636 C 491.6515,398.7642 490.27835,395.84056 489.08119,392.90226 C 487.88402,389.96397 486.86307,386.9937 485.98228,384.0006 C 485.10148,381.0075 484.38532,377.98008 483.81434,374.95351 C 483.24337,371.92694 482.8167,368.89229 482.54902,365.8536 C 482.28134,362.81492 482.15911,359.80692 482.18818,356.77744 C 482.21726,353.74796 482.39647,350.69372 482.71578,347.69478 C 483.03508,344.69584 483.50231,341.72185 484.10531,338.77478 C 484.70831,335.82772 485.44639,332.90738 486.32654,330.03353 C 487.20669,327.15967 488.23057,324.32687 489.38134,321.54756 C 490.53211,318.76825 491.81044,316.04267 493.22529,313.37926 C 494.64014,310.71584 496.18785,308.13137 497.86027,305.60518 C 499.53268,303.07899 501.33259,300.60902 503.25602,298.24138 C 505.17945,295.87375 507.23234,293.59849 509.40026,291.41074 C 511.56818,289.22299 513.82661,287.13189 516.23248,285.14537 C 518.63834,283.15885 521.19383,281.28391 523.83112,279.51995 C 526.4684,277.756 529.21303,276.1188 532.0752,274.59875 C 534.93736,273.07869 537.83075,271.7216 540.76905,270.52443 C 543.70735,269.32727 546.69179,268.26001 549.68489,267.37922 C 552.67799,266.49842 555.67517,265.79832 558.70174,265.22735 C 559.03717,265.16406 559.37358,265.13955 559.70927,265.08003 C 532.01518,247.13515 495.70439,244.27976 464.51124,260.84604 z"
           id="path4832" />
        <path
           sodipodi:type="arc"
           style="fill:#b3b3b3;fill-opacity:1;fill-rule:nonzero;stroke:#000000;stroke-width:4.46219397;stroke-miterlimit:4;stroke-dasharray:none;stroke-opacity:1"
           id="path4834"
           sodipodi:cx="-334.28571"
           sodipodi:cy="626.64789"
           sodipodi:rx="17.142857"
           sodipodi:ry="17.142857"
           d="M -317.14285,626.64789 A 17.142857,17.142857 0 1 1 -351.42856,626.64789 A 17.142857,17.142857 0 1 1 -317.14285,626.64789 z"
           transform="matrix(0.9678819,-0.5140298,0.5140298,0.9678819,539.4577,-432.47249)" />
      </g>
      <g
         transform="matrix(0.8179675,0,0,0.8179675,-32.4907,15.266857)"
         id="g5423">
        <path
           style="fill:#ff0000;fill-opacity:1;fill-rule:nonzero;stroke:#000000;stroke-width:4.8901701;stroke-miterlimit:4;stroke-opacity:1"
           d="M 720.92572,36.928844 L 730.51637,45.491884 C 642.39284,64.482233 599.95673,101.28315 554.993,179.87529 L 545.40235,171.31225 C 581.85677,92.783079 638.33405,58.943204 720.92572,36.928844 z"
           id="rect5418"
           sodipodi:nodetypes="ccccc"
           inkscape:transform-center-y="-78.817267"
           inkscape:transform-center-x="-77.743917" />
        <path
           sodipodi:type="arc"
           style="opacity:1;fill:#ff0000;fill-opacity:1;fill-rule:nonzero;stroke:#000000;stroke-width:4.8901701;stroke-miterlimit:4;stroke-dasharray:none;stroke-opacity:1"
           id="path5421"
           sodipodi:cx="-37.857143"
           sodipodi:cy="34.505039"
           sodipodi:rx="9.2857141"
           sodipodi:ry="9.2857141"
           d="M -28.571429,34.505039 A 9.2857141,9.2857141 0 1 1 -47.142858,34.505039 A 9.2857141,9.2857141 0 1 1 -28.571429,34.505039 z"
           transform="translate(765.71429,5.7142857)" />
      </g>
      <path
         sodipodi:nodetypes="cccsc"
         id="path4748"
         d="M 570.44555,262.5893 C 579.12774,350.65471 510.15934,406.0751 297.60628,432.02543 C 165.08983,429.2006 85.530312,386.57448 59.822763,306.99326 C 62.158862,225.10829 165.05972,135.22006 297.60628,135.22006 C 430.15283,135.22006 570.44555,180.67102 570.44555,262.5893 z"
         style="fill:#ff0000;fill-opacity:1;fill-rule:nonzero;stroke:#000000;stroke-width:4;stroke-miterlimit:4;stroke-opacity:1" />
      <g
         transform="matrix(0.8179675,0,0,0.8179675,330.92474,414.87833)"
         id="g5412">
        <path
           style="fill:#00ffff;fill-opacity:1;fill-rule:nonzero;stroke:#000000;stroke-width:4.8901701;stroke-miterlimit:4;stroke-opacity:1"
           d="M 130,-150.84375 C 249.50696,-132.54668 291.07372,-90.767371 283.46875,-167.90625 C 283.46875,-230.61916 216.22566,-275.823 126.15625,-300.875 C 125.07687,-297.06148 124.09556,-293.25102 123.21875,-289.4375 C 122.31549,-285.50893 121.50739,-281.55357 120.8125,-277.625 C 120.11761,-273.69643 119.52448,-269.77232 119.03125,-265.84375 C 118.53802,-261.91518 118.14202,-257.99107 117.84375,-254.0625 C 117.54548,-250.13393 117.36002,-246.20982 117.25,-242.28125 C 117.13998,-238.35268 117.11597,-234.42857 117.1875,-230.5 C 117.25903,-226.57143 117.40988,-222.64732 117.65625,-218.71875 C 117.90262,-214.79018 118.24175,-210.86607 118.65625,-206.9375 C 119.48526,-199.08036 120.63244,-191.20089 122.09375,-183.34375 C 123.55506,-175.48661 125.33503,-167.63839 127.375,-159.78125 C 128.14891,-156.80047 129.14813,-153.82453 130,-150.84375 z"
           id="path5414" />
        <path
           style="fill:#00ffff;fill-opacity:1;fill-rule:nonzero;stroke:#000000;stroke-width:4.8901701;stroke-miterlimit:4;stroke-opacity:1"
           d="M 81.65625,-311.15625 C 39.490845,-319.30316 -5.5806755,-323.625 -50.0625,-323.625 L -50.0625,-152.78125 C -0.1672417,-158.8729 43.196542,-159.16335 80.71875,-156.5 C 81.804721,-166.35543 82.981476,-176.2408 83.875,-186 C 84.628889,-194.23409 85.28521,-202.44171 85.8125,-210.5625 C 86.33979,-218.68329 86.750066,-226.72102 86.96875,-234.6875 C 87.187434,-242.65398 87.234428,-250.54132 87.0625,-258.3125 C 86.890572,-266.08368 86.488297,-273.74638 85.84375,-281.28125 C 85.199203,-288.81612 84.292923,-296.21119 83.09375,-303.46875 C 82.666329,-306.05556 82.161198,-308.6082 81.65625,-311.15625 z"
           id="path5416" />
      </g>
      <g
         transform="matrix(0.8179675,0,0,0.8179675,136.94541,97.063607)"
         id="g4812">
        <path
           style="fill:#808080;fill-opacity:1;fill-rule:nonzero;stroke:#000000;stroke-width:4.8901701;stroke-miterlimit:4;stroke-dasharray:none;stroke-opacity:1"
           d="M 559.70927,265.08003 C 559.37358,265.13955 559.03717,265.16406 558.70174,265.22735 C 555.67517,265.79832 552.67799,266.49842 549.68489,267.37922 C 546.69179,268.26001 543.70735,269.32727 540.76905,270.52443 C 537.83075,271.7216 534.93736,273.07869 532.0752,274.59875 C 529.21303,276.1188 526.4684,277.756 523.83112,279.51995 C 521.19383,281.28391 518.63834,283.15885 516.23248,285.14537 C 513.82661,287.13189 511.56818,289.22299 509.40026,291.41074 C 507.23234,293.59849 505.17945,295.87375 503.25602,298.24138 C 501.33259,300.60902 499.53268,303.07899 497.86027,305.60518 C 496.18785,308.13137 494.64014,310.71584 493.22529,313.37926 C 491.81044,316.04267 490.53211,318.76825 489.38134,321.54756 C 488.23057,324.32687 487.20669,327.15967 486.32654,330.03353 C 485.44639,332.90738 484.70831,335.82772 484.10531,338.77478 C 483.50231,341.72185 483.03508,344.69584 482.71578,347.69478 C 482.39647,350.69372 482.21726,353.74796 482.18818,356.77744 C 482.15911,359.80692 482.28134,362.81492 482.54902,365.8536 C 482.8167,368.89229 483.24337,371.92694 483.81434,374.95351 C 484.38532,377.98008 485.10148,381.0075 485.98228,384.0006 C 486.86307,386.9937 487.88402,389.96397 489.08119,392.90226 C 490.27835,395.84056 491.6515,398.7642 493.17156,401.62636 C 494.69162,404.48853 496.32881,407.23316 498.09277,409.87044 C 499.85673,412.50773 501.74584,415.01691 503.73237,417.42278 C 505.71889,419.82864 507.82605,422.11732 510.0138,424.28524 C 512.20155,426.45316 514.47681,428.50605 516.84445,430.42948 C 519.21208,432.3529 521.6518,434.16888 524.17799,435.8413 C 524.41361,435.99728 524.67163,436.11387 524.90853,436.26764 C 534.34588,434.59899 543.70177,431.48296 552.61916,426.74705 C 598.4138,402.42609 615.85982,345.54431 591.53886,299.74968 C 583.78419,285.14819 572.67285,273.48002 559.70927,265.08003 z"
           id="path4814" />
        <path
           style="fill:#000000;fill-opacity:1;fill-rule:nonzero;stroke:#000000;stroke-width:4.8901701;stroke-miterlimit:4;stroke-dasharray:none;stroke-opacity:1"
           d="M 464.51124,260.84604 C 418.71659,285.167 401.28665,342.07902 425.6076,387.87366 C 445.19265,424.75092 485.88097,443.16823 524.90853,436.26764 C 524.67163,436.11387 524.41361,435.99728 524.17799,435.8413 C 521.6518,434.16888 519.21208,432.3529 516.84445,430.42948 C 514.47681,428.50605 512.20155,426.45316 510.0138,424.28524 C 507.82605,422.11732 505.71889,419.82864 503.73237,417.42278 C 501.74584,415.01691 499.85673,412.50773 498.09277,409.87044 C 496.32881,407.23316 494.69162,404.48853 493.17156,401.62636 C 491.6515,398.7642 490.27835,395.84056 489.08119,392.90226 C 487.88402,389.96397 486.86307,386.9937 485.98228,384.0006 C 485.10148,381.0075 484.38532,377.98008 483.81434,374.95351 C 483.24337,371.92694 482.8167,368.89229 482.54902,365.8536 C 482.28134,362.81492 482.15911,359.80692 482.18818,356.77744 C 482.21726,353.74796 482.39647,350.69372 482.71578,347.69478 C 483.03508,344.69584 483.50231,341.72185 484.10531,338.77478 C 484.70831,335.82772 485.44639,332.90738 486.32654,330.03353 C 487.20669,327.15967 488.23057,324.32687 489.38134,321.54756 C 490.53211,318.76825 491.81044,316.04267 493.22529,313.37926 C 494.64014,310.71584 496.18785,308.13137 497.86027,305.60518 C 499.53268,303.07899 501.33259,300.60902 503.25602,298.24138 C 505.17945,295.87375 507.23234,293.59849 509.40026,291.41074 C 511.56818,289.22299 513.82661,287.13189 516.23248,285.14537 C 518.63834,283.15885 521.19383,281.28391 523.83112,279.51995 C 526.4684,277.756 529.21303,276.1188 532.0752,274.59875 C 534.93736,273.07869 537.83075,271.7216 540.76905,270.52443 C 543.70735,269.32727 546.69179,268.26001 549.68489,267.37922 C 552.67799,266.49842 555.67517,265.79832 558.70174,265.22735 C 559.03717,265.16406 559.37358,265.13955 559.70927,265.08003 C 532.01518,247.13515 495.70439,244.27976 464.51124,260.84604 z"
           id="path4816" />
        <path
           sodipodi:type="arc"
           style="fill:#b3b3b3;fill-opacity:1;fill-rule:nonzero;stroke:#000000;stroke-width:4.46219397;stroke-miterlimit:4;stroke-dasharray:none;stroke-opacity:1"
           id="path4818"
           sodipodi:cx="-334.28571"
           sodipodi:cy="626.64789"
           sodipodi:rx="17.142857"
           sodipodi:ry="17.142857"
           d="M -317.14285,626.64789 A 17.142857,17.142857 0 1 1 -351.42856,626.64789 A 17.142857,17.142857 0 1 1 -317.14285,626.64789 z"
           transform="matrix(0.9678819,-0.5140298,0.5140298,0.9678819,539.4577,-432.47249)" />
      </g>
      <g
         transform="matrix(0.8179675,0,0,0.8179675,-99.09663,141.46756)"
         id="g4820">
        <path
           style="fill:#808080;fill-opacity:1;fill-rule:nonzero;stroke:#000000;stroke-width:4.8901701;stroke-miterlimit:4;stroke-dasharray:none;stroke-opacity:1"
           d="M 559.70927,265.08003 C 559.37358,265.13955 559.03717,265.16406 558.70174,265.22735 C 555.67517,265.79832 552.67799,266.49842 549.68489,267.37922 C 546.69179,268.26001 543.70735,269.32727 540.76905,270.52443 C 537.83075,271.7216 534.93736,273.07869 532.0752,274.59875 C 529.21303,276.1188 526.4684,277.756 523.83112,279.51995 C 521.19383,281.28391 518.63834,283.15885 516.23248,285.14537 C 513.82661,287.13189 511.56818,289.22299 509.40026,291.41074 C 507.23234,293.59849 505.17945,295.87375 503.25602,298.24138 C 501.33259,300.60902 499.53268,303.07899 497.86027,305.60518 C 496.18785,308.13137 494.64014,310.71584 493.22529,313.37926 C 491.81044,316.04267 490.53211,318.76825 489.38134,321.54756 C 488.23057,324.32687 487.20669,327.15967 486.32654,330.03353 C 485.44639,332.90738 484.70831,335.82772 484.10531,338.77478 C 483.50231,341.72185 483.03508,344.69584 482.71578,347.69478 C 482.39647,350.69372 482.21726,353.74796 482.18818,356.77744 C 482.15911,359.80692 482.28134,362.81492 482.54902,365.8536 C 482.8167,368.89229 483.24337,371.92694 483.81434,374.95351 C 484.38532,377.98008 485.10148,381.0075 485.98228,384.0006 C 486.86307,386.9937 487.88402,389.96397 489.08119,392.90226 C 490.27835,395.84056 491.6515,398.7642 493.17156,401.62636 C 494.69162,404.48853 496.32881,407.23316 498.09277,409.87044 C 499.85673,412.50773 501.74584,415.01691 503.73237,417.42278 C 505.71889,419.82864 507.82605,422.11732 510.0138,424.28524 C 512.20155,426.45316 514.47681,428.50605 516.84445,430.42948 C 519.21208,432.3529 521.6518,434.16888 524.17799,435.8413 C 524.41361,435.99728 524.67163,436.11387 524.90853,436.26764 C 534.34588,434.59899 543.70177,431.48296 552.61916,426.74705 C 598.4138,402.42609 615.85982,345.54431 591.53886,299.74968 C 583.78419,285.14819 572.67285,273.48002 559.70927,265.08003 z"
           id="path4822" />
        <path
           style="fill:#000000;fill-opacity:1;fill-rule:nonzero;stroke:#000000;stroke-width:4.8901701;stroke-miterlimit:4;stroke-dasharray:none;stroke-opacity:1"
           d="M 464.51124,260.84604 C 418.71659,285.167 401.28665,342.07902 425.6076,387.87366 C 445.19265,424.75092 485.88097,443.16823 524.90853,436.26764 C 524.67163,436.11387 524.41361,435.99728 524.17799,435.8413 C 521.6518,434.16888 519.21208,432.3529 516.84445,430.42948 C 514.47681,428.50605 512.20155,426.45316 510.0138,424.28524 C 507.82605,422.11732 505.71889,419.82864 503.73237,417.42278 C 501.74584,415.01691 499.85673,412.50773 498.09277,409.87044 C 496.32881,407.23316 494.69162,404.48853 493.17156,401.62636 C 491.6515,398.7642 490.27835,395.84056 489.08119,392.90226 C 487.88402,389.96397 486.86307,386.9937 485.98228,384.0006 C 485.10148,381.0075 484.38532,377.98008 483.81434,374.95351 C 483.24337,371.92694 482.8167,368.89229 482.54902,365.8536 C 482.28134,362.81492 482.15911,359.80692 482.18818,356.77744 C 482.21726,353.74796 482.39647,350.69372 482.71578,347.69478 C 483.03508,344.69584 483.50231,341.72185 484.10531,338.77478 C 484.70831,335.82772 485.44639,332.90738 486.32654,330.03353 C 487.20669,327.15967 488.23057,324.32687 489.38134,321.54756 C 490.53211,318.76825 491.81044,316.04267 493.22529,313.37926 C 494.64014,310.71584 496.18785,308.13137 497.86027,305.60518 C 499.53268,303.07899 501.33259,300.60902 503.25602,298.24138 C 505.17945,295.87375 507.23234,293.59849 509.40026,291.41074 C 511.56818,289.22299 513.82661,287.13189 516.23248,285.14537 C 518.63834,283.15885 521.19383,281.28391 523.83112,279.51995 C 526.4684,277.756 529.21303,276.1188 532.0752,274.59875 C 534.93736,273.07869 537.83075,271.7216 540.76905,270.52443 C 543.70735,269.32727 546.69179,268.26001 549.68489,267.37922 C 552.67799,266.49842 555.67517,265.79832 558.70174,265.22735 C 559.03717,265.16406 559.37358,265.13955 559.70927,265.08003 C 532.01518,247.13515 495.70439,244.27976 464.51124,260.84604 z"
           id="path4824" />
        <path
           sodipodi:type="arc"
           style="fill:#b3b3b3;fill-opacity:1;fill-rule:nonzero;stroke:#000000;stroke-width:4.46219397;stroke-miterlimit:4;stroke-dasharray:none;stroke-opacity:1"
           id="path4826"
           sodipodi:cx="-334.28571"
           sodipodi:cy="626.64789"
           sodipodi:rx="17.142857"
           sodipodi:ry="17.142857"
           d="M -317.14285,626.64789 A 17.142857,17.142857 0 1 1 -351.42856,626.64789 A 17.142857,17.142857 0 1 1 -317.14285,626.64789 z"
           transform="matrix(0.9678819,-0.5140298,0.5140298,0.9678819,539.4577,-432.47249)" />
      </g>
      <path
         sodipodi:nodetypes="cccc"
         id="path4836"
         d="M 266.33888,292.32734 C 206.66234,317.44599 62.950785,308.38573 93.481344,259.52861 C 116.73225,210.56294 176.12261,169.66656 253.87478,151.91857 C 270.10367,201.13633 268.80874,246.84933 266.33888,292.32734 z"
         style="fill:#00ffff;fill-opacity:1;fill-rule:nonzero;stroke:#000000;stroke-width:3.99999976;stroke-miterlimit:4;stroke-opacity:1" />
      <path
         transform="matrix(0.8442063,-0.290523,0.5130339,0.4207995,363.89153,-83.278596)"
         sodipodi:end="4.1515344"
         sodipodi:start="0.49757924"
         d="M -472.29694,509.7013 A 54.285713,54.285713 0 1 1 -548.87512,437.82155 L -520,483.79074 z"
         sodipodi:ry="54.285713"
         sodipodi:rx="54.285713"
         sodipodi:cy="483.79074"
         sodipodi:cx="-520"
         id="path4842"
         style="fill:none;fill-opacity:1;fill-rule:nonzero;stroke:#000000;stroke-width:5.63274336;stroke-miterlimit:4;stroke-dasharray:none;stroke-opacity:1"
         sodipodi:type="arc" />
      <g
         transform="matrix(0.8179675,0,0,0.8179675,70.339492,50.322604)"
         id="g5362">
        <path
           style="fill:none;fill-opacity:1;fill-rule:nonzero;stroke:#000000;stroke-width:4.8901701;stroke-miterlimit:4;stroke-opacity:1"
           d="M 134.48399,224.2744 C 127.04027,247.27301 114.79035,240.03364 102.652,233.49619 C 97.194128,214.65651 99.894891,197.30067 108.68052,194.75546 C 117.46615,192.21025 129.0261,205.43473 134.48399,224.2744 z"
           id="path5353"
           sodipodi:nodetypes="ccsc" />
        <path
           sodipodi:type="arc"
           style="opacity:1;fill:#000000;fill-opacity:1;fill-rule:nonzero;stroke:#000000;stroke-width:4.8901701;stroke-miterlimit:4;stroke-dasharray:none;stroke-opacity:1"
           id="path5358"
           sodipodi:cx="-501.42856"
           sodipodi:cy="382.36218"
           sodipodi:rx="10"
           sodipodi:ry="10"
           d="M -491.42856,382.36218 A 10,10 0 1 1 -511.42856,382.36218 A 10,10 0 1 1 -491.42856,382.36218 z"
           transform="translate(621.42857,-152.85715)" />
      </g>
      <g
         transform="matrix(0.8179675,0,0,0.8179675,62.15982,47.985557)"
         id="g5366">
        <path
           style="fill:none;fill-opacity:1;fill-rule:nonzero;stroke:#000000;stroke-width:4.8901701;stroke-miterlimit:4;stroke-opacity:1"
           d="M 206.75067,236.76148 C 186.83277,250.45899 181.53261,237.25379 175.89314,224.67308 C 183.04763,206.41013 195.76625,194.29584 204.28293,197.63224 C 212.79961,200.96864 213.90516,218.49853 206.75067,236.76148 z"
           id="path5356"
           sodipodi:nodetypes="ccsc" />
        <path
           sodipodi:type="arc"
           style="opacity:1;fill:#000000;fill-opacity:1;fill-rule:nonzero;stroke:#000000;stroke-width:4.8901701;stroke-miterlimit:4;stroke-dasharray:none;stroke-opacity:1"
           id="path5360"
           sodipodi:cx="-501.42856"
           sodipodi:cy="382.36218"
           sodipodi:rx="10"
           sodipodi:ry="10"
           d="M -491.42856,382.36218 A 10,10 0 1 1 -511.42856,382.36218 A 10,10 0 1 1 -491.42856,382.36218 z"
           transform="translate(694.28571,-151.42857)" />
      </g>
      <g
         transform="matrix(0.8179675,0,0,0.8179675,31.77817,-43.159392)"
         id="g5506">
        <path
           style="fill:#ffff00;fill-opacity:1;fill-rule:nonzero;stroke:#000000;stroke-width:4.8901701;stroke-miterlimit:4;stroke-opacity:1"
           d="M 50.19223,463.46055 C 120.00025,508.36255 190.59287,511.86447 261.33138,507.65239 C 271.40175,509.76015 278.20365,517.69328 276.5823,525.43971 C 274.96097,533.18614 265.54852,537.72558 255.47816,535.61783 C 185.33377,547.69811 115.35968,547.61425 44.339008,491.42599 C 34.268649,489.31824 27.466732,481.38511 29.088076,473.63868 C 30.709419,465.89224 40.121872,461.3528 50.19223,463.46055 z"
           id="rect5427"
           sodipodi:nodetypes="ccsccsc" />
        <path
           style="fill:#ffff00;fill-opacity:1;fill-rule:nonzero;stroke:#000000;stroke-width:4.8901701;stroke-miterlimit:4;stroke-opacity:1"
           d="M 45.92847,476.18783 C 115.73649,521.08983 186.32911,524.59175 257.06762,520.37967 C 267.13799,522.48743 273.93989,530.42056 272.31854,538.16699 C 270.69721,545.91342 261.28476,550.45286 251.2144,548.34511 C 181.07001,560.42539 111.09592,560.34153 40.075248,504.15327 C 30.004889,502.04552 23.202972,494.11239 24.824316,486.36596 C 26.445659,478.61952 35.858112,474.08008 45.92847,476.18783 z"
           id="path5502"
           sodipodi:nodetypes="ccsccsc" />
      </g>
    </g>
  </g>
</svg>
